{
  "accessors": [
    {
      "bufferView": 0,
      "byteOffset": 0,
      "componentType": 5126,
      "count": 25000,
      "max": [
        0.0704558045,
        0.099399,
        0.0315276273
      ],
      "min": [
        -0.0704669952,
        0.000008215494,
        -0.031512998
      ],
      "normalized": false,
      "type": "VEC3"
    },
    {
      "bufferView": 1,
      "byteOffset": 0,
      "componentType": 5126,
      "count": 25000,
      "normalized": false,
      "type": "VEC3"
    },
    {
      "bufferView": 2,
      "byteOffset": 0,
      "componentType": 5125,
      "count": 150000,
      "normalized": false,
      "type": "SCALAR"
    }
  ],
  "asset": {
    "generator": "UniGLTF-2.32.2",
    "version": "2.0"
  },
  "buffers": [
    {
      "uri": "Dragon_1_data.bin",
      "byteLength": 1200000
    }
  ],
  "bufferViews": [
    {
      "buffer": 0,
      "byteLength": 300000,
      "byteOffset": 0,
      "target": 34962
    },
    {
      "buffer": 0,
      "byteLength": 300000,
      "byteOffset": 300000,
      "target": 34962
    },
    {
      "buffer": 0,
      "byteLength": 600000,
      "byteOffset": 600000,
      "target": 34963
    }
  ],
  "extensionsUsed": [
    "KHR_materials_unlit",
    "KHR_texture_transform"
  ],
  "materials": [
    {
      "alphaMode": "OPAQUE",
      "doubleSided": false,
      "name": "wire_087224198",
      "pbrMetallicRoughness": {
        "baseColorFactor": [
          0.6038274,
          0.6038274,
          0.6038274,
          1
        ],
        "metallicFactor": 0,
        "roughnessFactor": 1
      }
    }
  ],
  "meshes": [
    {
      "extras": {
        "targetNames": []
      },
      "name": "default",
      "primitives": [
        {
          "attributes": {
            "NORMAL": 1,
            "POSITION": 0
          },
          "extras": {
            "targetNames": []
          },
          "indices": 2,
          "material": 0,
          "mode": 4
        }
      ]
    }
  ],
  "nodes": [
    {
      "mesh": 0,
      "name": "Dragon_1(Clone)",
      "scale": [
        100,
        100,
        100
      ]
    }
  ],
  "scene": 0,
  "scenes": [
    {
      "nodes": [
        0
      ]
    }
  ]
}